<svg xmlns="http://www.w3.org/2000/svg" xmlns:xlink="http://www.w3.org/1999/xlink" width="2000" zoomAndPan="magnify" viewBox="0 0 1500 1499.999933" height="2000" preserveAspectRatio="xMidYMid meet" version="1.0"><defs><g/><clipPath id="e290e91cb9"><path d="M 0.789062 0 L 1497 0 L 1497 1499.90625 L 0.789062 1499.90625 Z M 0.789062 0 " clip-rule="nonzero"/></clipPath><clipPath id="f50740190f"><rect x="0" width="303" y="0" height="482"/></clipPath><clipPath id="878c35a2ff"><rect x="0" width="345" y="0" height="503"/></clipPath><clipPath id="177ece21a5"><rect x="0" width="1497" y="0" height="1500"/></clipPath></defs><g transform="matrix(1, 0, 0, 1, 3, 0.000000000000112861)"><g clip-path="url(#177ece21a5)"><g clip-path="url(#e290e91cb9)"><path fill="#000000" d="M 1122.726562 657.402344 L 387.078125 657.402344 C 432.316406 613.199219 487.382812 579.019531 548.597656 558.589844 C 606.066406 601.296875 677.496094 626.605469 754.902344 626.605469 C 832.3125 626.605469 903.738281 601.296875 961.207031 558.589844 C 1022.425781 579.023438 1077.492188 613.203125 1122.730469 657.402344 Z M 1470.195312 1268.050781 L 39.613281 1268.050781 C 18.257812 1268.050781 0.789062 1285.519531 0.789062 1306.875 L 0.789062 1359.636719 C 0.789062 1380.988281 18.265625 1398.457031 39.613281 1398.457031 L 109.289062 1398.457031 L 109.289062 1460.839844 C 109.289062 1482.191406 126.789062 1499.660156 148.109375 1499.660156 L 1361.703125 1499.660156 C 1383.023438 1499.660156 1400.523438 1482.160156 1400.523438 1460.839844 L 1400.523438 1398.457031 L 1470.195312 1398.457031 C 1491.542969 1398.457031 1509.019531 1380.984375 1509.019531 1359.636719 L 1509.019531 1306.875 C 1509.019531 1285.535156 1491.550781 1268.050781 1470.195312 1268.050781 Z M 754.902344 580.902344 C 919.566406 580.902344 1053.050781 449.058594 1053.050781 286.414062 C 1053.050781 123.773438 919.566406 -8.078125 754.902344 -8.078125 C 590.242188 -8.078125 456.757812 123.769531 456.757812 286.410156 C 456.757812 449.054688 590.246094 580.902344 754.902344 580.902344 Z M 102.539062 747.730469 C 99.09375 724.058594 117.21875 703.101562 141.140625 703.101562 L 1368.664062 703.101562 C 1392.585938 703.101562 1410.710938 724.0625 1407.265625 747.730469 L 1338.164062 1222.347656 L 171.644531 1222.347656 L 102.542969 747.730469 Z M 572.6875 962.726562 C 572.6875 1063.375 654.253906 1144.941406 754.902344 1144.941406 C 855.554688 1144.941406 937.121094 1063.375 937.117188 962.726562 C 937.117188 862.078125 855.554688 780.507812 754.902344 780.511719 C 654.253906 780.511719 572.683594 862.078125 572.6875 962.726562 Z M 705.664062 1026.757812 C 713.652344 1017.042969 712.253906 1002.695312 702.539062 994.710938 L 663.695312 962.726562 L 702.539062 930.738281 C 712.253906 922.753906 713.648438 908.40625 705.664062 898.691406 C 697.679688 888.976562 683.332031 887.582031 673.617188 895.566406 L 613.707031 944.902344 C 602.449219 953.871094 602.179688 971.066406 613.417969 980.308594 L 673.617188 1029.878906 C 683.332031 1037.867188 697.679688 1036.46875 705.664062 1026.757812 Z M 735.800781 1034.089844 C 747.976562 1037.34375 760.484375 1030.105469 763.738281 1017.929688 L 790.164062 919.300781 C 793.421875 907.125 786.183594 894.613281 774.007812 891.359375 C 761.832031 888.105469 749.320312 895.339844 746.066406 907.519531 L 719.636719 1006.148438 C 716.382812 1018.324219 723.621094 1030.832031 735.796875 1034.089844 Z M 804.140625 1026.757812 C 812.128906 1036.46875 826.476562 1037.867188 836.191406 1029.878906 L 896.386719 980.308594 C 907.628906 971.066406 907.359375 953.875 896.101562 944.902344 L 836.191406 895.566406 C 826.476562 887.578125 812.128906 888.976562 804.140625 898.691406 C 796.15625 908.40625 797.554688 922.753906 807.269531 930.738281 L 846.109375 962.726562 L 807.269531 994.710938 C 797.554688 1002.695312 796.160156 1017.042969 804.140625 1026.757812 Z M 804.140625 1026.757812 " fill-opacity="1" fill-rule="nonzero"/></g><g fill="#ffffff" fill-opacity="1"><g transform="translate(370.672781, 1458.357807)"><g><path d="M 116.546875 -140.359375 L 116.546875 -124.734375 L 74.65625 -124.734375 L 74.65625 0 L 51.609375 0 L 51.609375 -124.734375 L 9.71875 -124.734375 L 9.71875 -140.359375 Z M 116.546875 -140.359375 "/></g></g></g><g fill="#ffffff" fill-opacity="1"><g transform="translate(575.723541, 1458.357807)"><g><path d="M 18.09375 -140.359375 L 41.328125 -140.359375 L 41.328125 0 L 18.09375 0 Z M 99.984375 -63.234375 L 49.140625 -63.234375 L 49.140625 -78.84375 L 99.984375 -78.84375 Z M 49.140625 -17.328125 L 105.890625 -17.328125 L 105.890625 0 L 49.140625 0 Z M 105.890625 -140.359375 L 105.890625 -123.03125 L 49.140625 -123.03125 L 49.140625 -140.359375 Z M 105.890625 -140.359375 "/></g></g></g><g fill="#ffffff" fill-opacity="1"><g transform="translate(774.108911, 1458.357807)"><g><path d="M 96.75 -113.3125 C 93.820312 -116.613281 90.707031 -119.085938 87.40625 -120.734375 C 84.113281 -122.390625 80.5625 -123.34375 76.75 -123.59375 L 76.75 -142.453125 C 90.96875 -141.816406 102.898438 -136.800781 112.546875 -127.40625 Z M 76.75 -17.90625 C 80.5625 -18.28125 84.148438 -19.289062 87.515625 -20.9375 C 90.878906 -22.59375 93.957031 -25.007812 96.75 -28.1875 L 112.546875 -14.28125 C 107.722656 -9.582031 102.328125 -5.960938 96.359375 -3.421875 C 90.398438 -0.890625 83.863281 0.566406 76.75 0.953125 Z M 15.046875 -70.84375 C 15.046875 -82.144531 16.410156 -92.113281 19.140625 -100.75 C 21.867188 -109.382812 25.644531 -116.679688 30.46875 -122.640625 C 35.289062 -128.609375 40.972656 -133.242188 47.515625 -136.546875 C 54.054688 -139.847656 61.195312 -141.816406 68.9375 -142.453125 L 68.9375 -123.40625 C 64.75 -122.769531 60.8125 -121.34375 57.125 -119.125 C 53.445312 -116.90625 50.210938 -113.695312 47.421875 -109.5 C 44.628906 -105.3125 42.4375 -100.007812 40.84375 -93.59375 C 39.257812 -87.1875 38.40625 -79.601562 38.28125 -70.84375 C 38.40625 -61.957031 39.257812 -54.335938 40.84375 -47.984375 C 42.4375 -41.640625 44.628906 -36.304688 47.421875 -31.984375 C 50.210938 -27.671875 53.476562 -24.367188 57.21875 -22.078125 C 60.96875 -19.796875 64.875 -18.40625 68.9375 -17.90625 L 68.9375 0.765625 C 61.195312 0.253906 54.054688 -1.648438 47.515625 -4.953125 C 40.972656 -8.253906 35.289062 -12.890625 30.46875 -18.859375 C 25.644531 -24.828125 21.867188 -32.15625 19.140625 -40.84375 C 16.410156 -49.539062 15.046875 -59.539062 15.046875 -70.84375 Z M 15.046875 -70.84375 "/></g></g></g><g fill="#ffffff" fill-opacity="1"><g transform="translate(980.683186, 1458.357807)"><g><path d="M 124.734375 -140.359375 L 124.734375 0 L 101.890625 0 L 101.890625 -63.234375 L 48.9375 -63.234375 L 48.9375 -78.84375 L 101.890625 -78.84375 L 101.890625 -140.359375 Z M 17.90625 -140.359375 L 41.140625 -140.359375 L 41.140625 0 L 17.90625 0 Z M 17.90625 -140.359375 "/></g></g></g><g transform="matrix(1, 0, 0, 1, 211, 788)"><g clip-path="url(#f50740190f)"><g fill="#ffffff" fill-opacity="1"><g transform="translate(76.962382, 403.027355)"><g><path d="M 41.125 -234.9375 L 54.15625 -173.453125 L 137 -191 L 146.578125 -145.78125 L 63.734375 -128.234375 L 77.03125 -65.46875 L 185.203125 -88.375 L 195.171875 -41.34375 L 25.5 -5.40625 L -30.328125 -268.9375 L 139.34375 -304.875 L 149.296875 -257.84375 Z M 41.125 -234.9375 "/></g></g></g><g fill="#ffffff" fill-opacity="1"><g transform="translate(284.239581, 359.110463)"><g/></g></g></g></g><g transform="matrix(1, 0, 0, 1, 972, 768)"><g clip-path="url(#878c35a2ff)"><g fill="#ffffff" fill-opacity="1"><g transform="translate(19.717359, 369.447182)"><g><path d="M 224.84375 -24.78125 C 226.332031 -24.457031 227.765625 -23.851562 229.140625 -22.96875 C 230.515625 -22.082031 231.734375 -20.800781 232.796875 -19.125 L 252.09375 12.609375 C 238.019531 24.535156 221.953125 32.347656 203.890625 36.046875 C 185.828125 39.742188 165.539062 39.144531 143.03125 34.25 C 122.375 29.757812 104.632812 22.21875 89.8125 11.625 C 74.988281 1.039062 63.226562 -11.675781 54.53125 -26.53125 C 45.84375 -41.394531 40.296875 -57.976562 37.890625 -76.28125 C 35.484375 -94.582031 36.441406 -113.679688 40.765625 -133.578125 C 45.179688 -153.867188 52.535156 -171.785156 62.828125 -187.328125 C 73.117188 -202.878906 85.570312 -215.507812 100.1875 -225.21875 C 114.800781 -234.9375 131.1875 -241.40625 149.34375 -244.625 C 167.507812 -247.84375 186.601562 -247.273438 206.625 -242.921875 C 216.820312 -240.703125 226.238281 -237.707031 234.875 -233.9375 C 243.507812 -230.175781 251.398438 -225.859375 258.546875 -220.984375 C 265.691406 -216.109375 272.070312 -210.710938 277.6875 -204.796875 C 283.300781 -198.890625 288.085938 -192.765625 292.046875 -186.421875 L 264.578125 -162.484375 C 262.816406 -161.046875 260.847656 -159.816406 258.671875 -158.796875 C 256.503906 -157.773438 253.738281 -157.628906 250.375 -158.359375 C 248.132812 -158.847656 246.128906 -159.804688 244.359375 -161.234375 C 242.585938 -162.660156 240.738281 -164.332031 238.8125 -166.25 C 236.882812 -168.164062 234.765625 -170.253906 232.453125 -172.515625 C 230.140625 -174.773438 227.304688 -177.019531 223.953125 -179.25 C 220.597656 -181.476562 216.570312 -183.617188 211.875 -185.671875 C 207.175781 -187.734375 201.53125 -189.484375 194.9375 -190.921875 C 184.476562 -193.191406 174.503906 -193.34375 165.015625 -191.375 C 155.535156 -189.40625 146.847656 -185.398438 138.953125 -179.359375 C 131.066406 -173.328125 124.242188 -165.300781 118.484375 -155.28125 C 112.734375 -145.257812 108.351562 -133.34375 105.34375 -119.53125 C 102.320312 -105.613281 101.53125 -92.828125 102.96875 -81.171875 C 104.40625 -69.523438 107.582031 -59.289062 112.5 -50.46875 C 117.425781 -41.644531 123.820312 -34.359375 131.6875 -28.609375 C 139.5625 -22.867188 148.472656 -18.914062 158.421875 -16.75 C 164.148438 -15.5 169.4375 -14.640625 174.28125 -14.171875 C 179.125 -13.703125 183.738281 -13.675781 188.125 -14.09375 C 192.507812 -14.507812 196.742188 -15.410156 200.828125 -16.796875 C 204.910156 -18.191406 209.1875 -20.160156 213.65625 -22.703125 C 215.414062 -23.628906 217.25 -24.304688 219.15625 -24.734375 C 221.070312 -25.171875 222.96875 -25.1875 224.84375 -24.78125 Z M 224.84375 -24.78125 "/></g></g></g><g fill="#ffffff" fill-opacity="1"><g transform="translate(264.345202, 422.653101)"><g/></g></g></g></g></g></g></svg>